<svg width="70" height="69" viewBox="0 0 70 69" fill="none" xmlns="http://www.w3.org/2000/svg">
<path id="Vector" d="M52.2647 0H0.741211V68.7601H69.5013V0H52.2647ZM2.40667 1.66546H20.1913C17.3224 3.58879 15.4581 5.65718 13.2715 8.08553C11.0402 10.564 8.45425 13.4347 4.00945 16.9268C3.48832 17.3351 2.95108 17.7129 2.40667 18.0568V1.66546ZM67.8359 67.0947H34.1274C34.824 66.4876 35.56 65.9772 36.3265 65.542C38.0528 64.5589 39.9672 63.9303 41.921 63.4002C46.4912 62.1592 52.3113 59.7595 57.9989 56.7939C61.4266 55.0067 64.8076 53.0135 67.8359 50.9451V67.0947ZM67.8359 48.3377C64.5838 50.6622 60.8284 52.9132 57.0122 54.9028C51.475 57.7896 45.8089 60.1266 41.3623 61.3336C39.2706 61.9013 37.2058 62.5836 35.2717 63.685C33.7746 64.5374 32.376 65.6298 31.1367 67.0947H12.5409C17.1701 55.8161 29.3208 54.0343 40.8035 52.3509L40.9826 52.324C44.3601 51.828 53.3446 49.1883 58.101 46.8406C59.4746 46.1636 60.5437 45.4813 61.1114 44.8348C62.1554 43.6529 62.1035 42.6142 60.5365 41.8281C59.4961 41.3051 57.3095 40.9989 53.5792 41.0276L53.4664 41.0347C39.4264 42.6017 31.7331 42.4477 28.4899 41.5666C27.6589 41.341 27.2847 41.2335 27.2847 41.2246C27.3169 41.0061 27.8864 40.6354 28.8767 40.1716C32.3043 38.5616 39.5303 37.1505 47.6677 37.5015C48.0205 37.5444 57.2557 38.6279 67.8359 32.4424V48.3377ZM67.8359 29.946C57.2683 36.6114 47.9363 35.3793 47.9077 35.3758L47.8289 35.3722C39.31 34.9943 31.6507 36.5129 27.9723 38.2375C26.3123 39.0165 25.3112 39.9477 25.1679 40.9165C24.9942 42.0949 25.8359 43.0637 27.9294 43.6314C31.3821 44.5698 39.3458 44.7596 53.667 43.1604C56.6433 43.1407 58.4305 43.3144 59.3116 43.6225C58.8818 44.0021 58.1261 44.4462 57.1555 44.9244C52.571 47.188 43.9213 49.7309 40.6728 50.2073L40.4937 50.2341C28.1264 52.0465 15.0248 53.968 10.2433 67.0947H2.40667V54.6915C3.74083 53.608 5.24153 52.6428 6.67597 51.7205C10.6856 49.1382 14.2404 46.8513 13.4506 42.9008C13.4417 42.8542 13.4291 42.8076 13.4148 42.7647C11.4664 36.8568 15.5942 33.4094 22.5515 31.1082C29.0683 28.9539 37.9705 27.7899 46.8762 26.624C54.2866 25.6534 61.7006 24.6828 67.8359 23.1373V29.946ZM67.8359 20.9364C61.7364 22.5267 54.1666 23.517 46.6004 24.5073C37.5783 25.6874 28.5597 26.8676 21.8836 29.0757C13.7389 31.7691 8.95389 35.9614 11.359 43.3664C11.8174 45.8681 8.85897 47.7736 5.5209 49.9225C4.49297 50.5834 3.43101 51.2657 2.40667 52.0053V20.546C3.40415 19.9837 4.39805 19.3426 5.33107 18.6084C9.91735 15.0052 12.5695 12.0593 14.86 9.51639C17.6232 6.45051 19.8403 3.98814 24.4659 1.66546H44.6789C34.7058 6.99313 23.4219 13.5618 16.8496 17.387L15.4993 18.1732C13.0781 19.5808 11.0975 21.2856 10.2737 22.6968C9.8475 23.4292 9.68275 24.1438 9.84392 24.801C10.0248 25.5424 10.5549 26.1011 11.4968 26.4056C12.7504 26.8085 14.9925 26.7422 18.5168 25.9292C25.9827 24.2047 32.3688 22.002 38.5811 19.8583C47.7823 16.685 56.6021 13.6424 67.8359 12.55V20.9364ZM37.8881 17.8347C31.7116 19.964 25.3631 22.1542 18.0405 23.8447C14.9209 24.5664 13.062 24.6667 12.1505 24.3712L11.9177 24.2996C11.898 24.2172 11.9732 24.0327 12.1236 23.7749C12.7701 22.6663 14.4571 21.2498 16.5702 20.0213L17.9187 19.2369C25.2861 14.9479 38.5811 7.21161 49.258 1.66546H67.8359V10.4046C56.2529 11.5006 47.2648 14.6005 37.8881 17.8347Z" fill="#342F2C"/>
</svg>
