<svg width="92" height="92" viewBox="0 0 92 92" fill="none" xmlns="http://www.w3.org/2000/svg">
<g id="icons/Map Marker/Filled">
<path id="Shape" fill-rule="evenodd" clip-rule="evenodd" d="M52.0965 85.4671C62.0027 77.3535 80.5 59.3849 80.5 38.3335C80.5 19.2797 65.0538 3.8335 46 3.8335C26.9462 3.8335 11.5 19.2797 11.5 38.3335C11.5 59.3849 29.9973 77.3535 39.9035 85.4671C43.4951 88.4088 48.5049 88.4088 52.0965 85.4671ZM46 46.0002C52.3513 46.0002 57.5 40.8514 57.5 34.5002C57.5 28.1489 52.3513 23.0002 46 23.0002C39.6487 23.0002 34.5 28.1489 34.5 34.5002C34.5 40.8514 39.6487 46.0002 46 46.0002Z" fill="#FFFBEF"/>
</g>
</svg>
