<svg width="57" height="57" viewBox="0 0 57 57" fill="none" xmlns="http://www.w3.org/2000/svg">
<g id="table 1" clip-path="url(#clip0_604_124)">
<path id="Vector" d="M36.5231 21.6058L44.392 13.7368H57V9.46912C57 6.29727 54.4195 3.7168 51.2477 3.7168H5.75232C2.58047 3.7168 0 6.29727 0 9.46912V13.7368H23.4902V40.9054C23.4902 45.8888 19.436 49.9431 14.4525 49.9431H9.97656V53.283H47.12V49.9431H42.6323C37.6336 49.9431 33.5667 45.8888 33.5667 40.9054V18.6495L36.5231 21.6058ZM51.0721 7.05664H51.2477C52.5779 7.05664 53.6602 8.13886 53.6602 9.46912V10.3969H47.7318L51.0721 7.05664ZM3.33984 10.3969V9.46912C3.33984 8.13886 4.42206 7.05664 5.75232 7.05664H21.9739L25.3142 10.3969H3.33984ZM34.1657 49.9431H22.9001C25.3168 47.6827 26.8301 44.4677 26.8301 40.9054V13.7368H28.6541L30.2268 15.3095V40.9054C30.2269 44.4677 31.7435 47.6827 34.1657 49.9431ZM26.6972 7.05664H46.3489L36.5231 16.8826L26.6972 7.05664Z" fill="#FFFBEF"/>
</g>
<defs>
<clipPath id="clip0_604_124">
<rect width="57" height="57" fill="white"/>
</clipPath>
</defs>
</svg>
